HIERARCHY
ROOT root
{
	OFFSET	0	13.1	24.9
	CHANNELS 6  Xposition Yposition Zposition Xrotation Yrotation Zrotation
	JOINT spine_1
	{
		OFFSET	0	9.99999	0
		CHANNELS 3  Xrotation Yrotation Zrotation
		JOINT spine_2
		{
			OFFSET	0	112	-10
			CHANNELS 3  Xrotation Yrotation Zrotation
			JOINT spine_3
			{
				OFFSET	0	206.5	19.3
				CHANNELS 3  Xrotation Yrotation Zrotation
				JOINT spine_4
				{
					OFFSET	0	110.4	14.6
					CHANNELS 3  Xrotation Yrotation Zrotation
					JOINT neck_1
					{
						OFFSET	0	71.8	-50.3
						CHANNELS 3  Xrotation Yrotation Zrotation
						JOINT neck_2
						{
							OFFSET	0	86.2	-25.8
							CHANNELS 3  Xrotation Yrotation Zrotation
							JOINT head_ee
							{
								OFFSET	0	179.8	-8.7
								CHANNELS 3  Xrotation Yrotation Zrotation
								End Site
								{
									OFFSET	1	0	0
								}
							}
						}
					}
					JOINT left_clavicle
					{
						OFFSET	-43.2	22.4	-70.8
						CHANNELS 3  Xrotation Yrotation Zrotation
						JOINT left_shoulder
						{
							OFFSET	-93.9	-5.79999	48.7
							CHANNELS 3  Xrotation Yrotation Zrotation
							JOINT left_elbow
							{
								OFFSET	-291.4	-30.8	15.2
								CHANNELS 3  Xrotation Yrotation Zrotation
								JOINT left_lowarm_twist
								{
									OFFSET	-110.7	-3.89999	13.6
									CHANNELS 3  Xrotation Yrotation Zrotation
									JOINT left_hand
									{
										OFFSET	-110.7	-3.89999	13.6
										CHANNELS 3  Xrotation Yrotation Zrotation
										JOINT left_ee
										{
											OFFSET	-80.8	-5.10001	12.1
											CHANNELS 3  Xrotation Yrotation Zrotation
											End Site
											{
												OFFSET	1	0	0
											}
										}
									}
								}
							}
						}
					}
					JOINT right_clavicle
					{
						OFFSET	43.2	22.4	-70.8
						CHANNELS 3  Xrotation Yrotation Zrotation
						JOINT right_shoulder
						{
							OFFSET	93.9	-5.79999	48.7
							CHANNELS 3  Xrotation Yrotation Zrotation
							JOINT right_elbow
							{
								OFFSET	291.4	-30.8	15.2
								CHANNELS 3  Xrotation Yrotation Zrotation
								JOINT right_lowarm_twist
								{
									OFFSET	110.7	-3.89999	13.6
									CHANNELS 3  Xrotation Yrotation Zrotation
									JOINT right_hand
									{
										OFFSET	110.7	-3.89999	13.6
										CHANNELS 3  Xrotation Yrotation Zrotation
										JOINT right_ee
										{
											OFFSET	80.8	-5.10001	12.1
											CHANNELS 3  Xrotation Yrotation Zrotation
											End Site
											{
												OFFSET	1	0	0
											}
										}
									}
								}
							}
						}
					}
				}
			}
		}
	}
	JOINT left_hip
	{
		OFFSET	-82.8	-127.5	0.300001
		CHANNELS 3  Xrotation Yrotation Zrotation
		JOINT left_knee
		{
			OFFSET	-28.2	-396.7	2.2
			CHANNELS 3  Xrotation Yrotation Zrotation
			JOINT left_ankle
			{
				OFFSET	-11.7	-411.3	35.4
				CHANNELS 3  Xrotation Yrotation Zrotation
				JOINT left_toes
				{
					OFFSET	0	-60	-88.6
					CHANNELS 3  Xrotation Yrotation Zrotation
					JOINT left_foot_ee
					{
						OFFSET	-22.5	-16.5	-42.2
						CHANNELS 3  Xrotation Yrotation Zrotation
						End Site
						{
							OFFSET	1	0	0
						}
					}
				}
			}
		}
	}
	JOINT right_hip
	{
		OFFSET	82.8	-127.5	0.300001
		CHANNELS 3  Xrotation Yrotation Zrotation
		JOINT right_knee
		{
			OFFSET	28.2	-396.7	2.2
			CHANNELS 3  Xrotation Yrotation Zrotation
			JOINT right_ankle
			{
				OFFSET	11.7	-411.3	35.4
				CHANNELS 3  Xrotation Yrotation Zrotation
				JOINT right_toes
				{
					OFFSET	0	-60	-88.6
					CHANNELS 3  Xrotation Yrotation Zrotation
					JOINT right_foot_ee
					{
						OFFSET	22.5	-16.5	-42.2
						CHANNELS 3  Xrotation Yrotation Zrotation
						End Site
						{
							OFFSET	1	0	0
						}
					}
				}
			}
		}
	}
}
MOTION
Frames: 14
Frame Time: 0.02
596.749 719.874 -1318.99 -167.058 -49.6267 -175.36 2.28133 0.135431 1.60987 2.28277 0.0327294 1.61523 2.28351 -0.244105 1.59701 2.27995 0.0111432 1.61552 -3.02826 10.2529 6.52132 -2.87168 13.5699 8.24378 -0.0 0.0 -0.0 7.98784 7.07015 15.3261 -28.16 -46.1375 44.7526 0.636351 -17.4965 0.0979248 -57.361 -4.9565 5.01147 -3.56316 15.8529 -15.6804 -0.0 0.0 -0.0 6.40816 -17.7335 -11.9918 2.29096 -5.98118 -68.4513 0.493335 13.7332 -0.0594087 68.333 2.56925 7.82044 -4.42054 -26.4452 14.2704 0.0 0.0 0.0 33.0305 -27.2788 19.6477 -29.678 0.0562668 4.50352 8.40118 27.9341 -1.27712 -9.01956 0.0 0.0 -0.0 0.0 -0.0 25.2571 13.2259 12.09 -37.1271 0.294185 -5.59188 13.2037 -7.57608 1.85505 29.0068 -0.0 -0.0 0.0 0.0 0.0 
605.776 720.213 -1317.02 -165.827 -51.1998 -174.59 2.33419 -0.231595 1.774 2.33588 -0.343993 1.75568 2.32495 -0.638263 1.67136 2.32124 -0.366336 1.75116 -2.54475 11.056 9.38134 -2.28207 12.6624 11.2924 -0.0 0.0 -0.0 7.29648 5.99067 14.0721 -27.5666 -46.8906 43.9084 0.760403 -20.6404 0.138468 -55.0966 -4.68002 4.92256 -3.82628 16.6231 -16.9148 -0.0 0.0 -0.0 6.24749 -15.663 -11.8403 1.76635 -6.13312 -67.9816 0.364545 10.2366 -0.0326524 69.6825 2.70749 7.92471 -4.33961 -26.7012 13.6341 0.0 0.0 0.0 33.8157 -28.6511 21.269 -29.7128 0.0549581 4.50872 6.97812 28.4806 -1.06881 -9.94122 0.0 0.0 -0.0 0.0 -0.0 25.5592 15.0963 12.0794 -38.0876 0.349604 -5.72869 15.8147 -7.67679 2.19901 31.1385 -0.0 -0.0 0.0 0.0 0.0 
619.984 722.351 -1309.5 -166.707 -55.754 -174.399 2.09455 -0.113085 1.83713 2.0964 -0.229737 1.82621 2.08881 -0.544919 1.75812 2.08459 -0.260468 1.82209 -6.74726 9.68179 10.0444 -6.48526 10.6609 11.939 -0.0 0.0 -0.0 6.68381 4.10366 12.9527 -25.3363 -48.859 44.7819 0.923507 -24.5827 0.201215 -57.7724 -5.00708 5.02644 -4.69621 17.5013 -22.0352 -0.0 0.0 -0.0 5.49896 -21.0498 -10.4296 -0.353896 -4.56825 -67.4138 0.395117 11.0747 -0.0383054 69.951 2.73528 7.94506 -3.97863 -28.488 10.4432 0.0 0.0 0.0 31.2992 -28.7894 20.9724 -29.5125 0.0624295 4.47888 8.96882 26.1669 -1.3467 -11.0167 0.0 0.0 -0.0 0.0 -0.0 33.1162 17.3268 9.16747 -36.934 0.283323 -5.56427 7.92957 -2.81792 1.13963 29.6935 -0.0 -0.0 0.0 0.0 0.0 
630.216 725.08 -1311.05 -166.696 -56.8479 -174.374 2.40731 0.0717268 1.88967 2.4093 -0.0486417 1.89041 2.40734 -0.367418 1.85501 2.40255 -0.069897 1.88974 -8.31844 7.79395 9.17404 -8.1029 8.11521 10.7669 -0.0 0.0 -0.0 7.67658 3.46094 14.8723 -25.3252 -47.1284 44.186 0.906157 -24.1742 0.194054 -61.6978 -5.49463 5.15089 -4.97907 17.6057 -23.8555 -0.0 0.0 -0.0 5.04744 -22.395 -9.71883 -0.999928 -5.47287 -66.9969 0.414323 11.5987 -0.0420808 70.4006 2.78204 7.97886 -4.23349 -28.6943 11.7169 0.0 0.0 0.0 29.6731 -28.6733 21.1694 -27.687 0.125686 4.20588 8.05349 26.3392 -1.21373 -11.0068 0.0 0.0 -0.0 0.0 -0.0 34.9581 13.7836 9.51215 -38.4472 0.370946 -5.77967 8.91887 -2.25188 1.27872 30.0387 -0.0 -0.0 0.0 0.0 0.0 
640.302 722.216 -1313.74 -166.764 -57.6389 -173.763 2.54748 0.199959 1.8741 2.54943 0.0803217 1.88302 2.5517 -0.23428 1.87012 2.54682 0.0639564 1.88364 -9.43471 5.6031 5.37833 -9.36946 6.8389 6.60076 -0.0 0.0 -0.0 8.02139 1.4904 15.5991 -25.6286 -49.9175 42.2972 0.941444 -25.0023 0.208737 -64.37 -5.83068 5.21631 -5.49322 17.607 -27.381 -0.0 0.0 -0.0 4.86812 -22.1853 -9.46829 -0.77885 -5.10147 -66.0174 0.365764 10.2701 -0.0328693 70.7607 2.81969 8.00566 -4.52398 -28.8008 13.2572 0.0 0.0 0.0 28.9459 -29.588 21.6212 -26.7265 0.155463 4.06148 9.73251 28.2201 -1.47637 -13.9275 0.0 0.0 -0.0 0.0 -0.0 35.7811 11.2697 9.6253 -38.8112 0.392872 -5.83114 7.44292 3.02434 1.08716 30.6963 -0.0 -0.0 0.0 0.0 0.0 
646.148 721.034 -1311.65 -165.3 -59.529 -171.7 2.4933 0.237714 1.63274 2.49477 0.133351 1.64455 2.49836 -0.143782 1.64367 2.49461 0.117574 1.64576 -9.77558 5.8239 4.13823 -9.75002 8.14294 5.46406 -0.0 0.0 -0.0 9.2367 1.37536 18.0327 -25.0099 -50.4444 40.9463 0.94659 -25.1221 0.210917 -66.3858 -6.0859 5.2552 -5.58458 17.9597 -27.7507 -0.0 0.0 -0.0 4.58707 -23.7318 -9.02837 -0.935901 -5.02 -65.466 0.389295 10.9154 -0.037195 71.8819 2.93795 8.0876 -4.41409 -28.7149 12.7043 0.0 0.0 0.0 27.0993 -26.2156 20.3416 -26.5307 0.161236 4.03198 11.7756 28.4622 -1.77774 -12.5581 0.0 0.0 -0.0 0.0 -0.0 36.4401 10.0847 9.86482 -37.5298 0.317141 -5.64935 8.7019 6.29004 1.28179 30.675 -0.0 -0.0 0.0 0.0 0.0 
653.32 725.569 -1315.32 -164.812 -59.8998 -170.987 2.26343 0.255235 1.56424 2.26477 0.155194 1.57731 2.26892 -0.117312 1.58057 2.26546 0.133751 1.57927 -8.52915 4.93525 1.89921 -8.53106 7.90668 2.9871 -0.0 0.0 -0.0 9.91733 0.860746 19.4412 -26.272 -49.8066 38.066 1.03753 -27.2007 0.251017 -68.357 -6.33654 5.28449 -6.81575 21.0375 -33.9775 -0.0 0.0 -0.0 3.62594 -21.2527 -7.68552 -2.54211 -4.95314 -68.092 0.473213 13.193 -0.0547237 72.9572 3.05286 8.164 -4.42243 -28.3066 13.0264 0.0 0.0 0.0 24.8521 -28.4395 20.4304 -21.0129 0.282224 3.19419 8.23638 28.6755 -1.25867 -15.0972 0.0 0.0 -0.0 0.0 -0.0 38.2733 11.1741 9.82569 -32.8973 0.0777684 -4.97931 5.46428 7.01286 0.816515 30.0388 -0.0 -0.0 0.0 0.0 0.0 
661.744 726.185 -1322.58 -164.137 -60.6196 -171.003 2.19127 0.289419 1.62088 2.19271 0.185706 1.63601 2.19792 -0.0993355 1.64351 2.19419 0.161437 1.63858 -9.39466 4.2624 0.556959 -9.40858 7.62218 1.5662 -0.0 0.0 -0.0 10.5651 0.857354 20.7754 -25.537 -50.2608 37.3851 1.10421 -28.6776 0.282265 -71.4836 -6.73548 5.31311 -6.79236 20.502 -34.3048 -0.0 0.0 -0.0 3.76885 -22.1851 -7.89573 -2.38806 -4.56981 -67.4835 0.521885 14.4953 -0.0663709 74.3625 3.20517 8.2606 -4.49891 -28.772 13.1373 0.0 0.0 0.0 24.2624 -25.6059 21.2706 -19.8611 0.297266 3.01811 5.218 28.7377 -0.804342 -13.4272 0.0 0.0 -0.0 0.0 -0.0 38.8145 9.82309 11.2627 -31.7824 0.02832 -4.81538 1.4011 9.79709 0.215038 32.871 -0.0 -0.0 0.0 0.0 0.0 
669.901 723.339 -1321.79 -162.852 -61.147 -170.308 2.1759 0.358746 1.79575 2.17766 0.243771 1.81493 2.1853 -0.0733939 1.82975 2.18069 0.216453 1.81839 -7.77874 3.22299 0.292194 -7.78128 5.80131 0.980368 -0.0 0.0 -0.0 10.5638 1.0323 20.7616 -25.3846 -50.0832 36.1656 1.27355 -32.2456 0.368156 -73.3884 -6.97893 5.31979 -7.40472 22.1147 -37.3611 -0.0 0.0 -0.0 3.04482 -21.3363 -6.84662 -3.86882 -4.51537 -68.7218 0.599231 16.5332 -0.0870624 75.5736 3.33829 8.34083 -4.45728 -28.8205 12.8728 0.0 0.0 0.0 23.1002 -25.3924 21.7791 -16.8438 0.319863 2.55577 2.4501 28.9367 -0.380762 -13.3862 0.0 0.0 -0.0 0.0 -0.0 39.6591 8.67741 12.2131 -28.6081 -0.0948582 -4.34387 -1.27615 11.5894 -0.199396 35.0116 -0.0 -0.0 0.0 0.0 0.0 
682.893 718.858 -1318.47 -162.626 -61.5673 -170.577 2.28694 0.364065 1.94663 2.28901 0.239483 1.96584 2.29705 -0.099837 1.97785 2.29165 0.213718 1.9688 -7.09088 2.06169 0.390897 -7.09078 3.54924 0.8103 -0.0 0.0 -0.0 10.4259 0.444642 20.5122 -25.9557 -49.9466 35.6694 1.31888 -33.1563 0.392643 -72.9827 -6.92707 5.31905 -8.84374 28.8806 -40.5039 -0.0 0.0 -0.0 2.44953 -20.6417 -5.96021 -4.77964 -4.18789 -69.7625 0.638097 17.5416 -0.0984504 76.9144 3.48761 8.42635 -4.28204 -28.0792 12.3931 0.0 0.0 0.0 21.3025 -23.5221 21.9523 -16.1689 0.321583 2.45223 4.63425 26.8118 -0.706935 -13.8861 0.0 0.0 -0.0 0.0 -0.0 39.6741 7.67882 12.7758 -25.2381 -0.196812 -3.83681 -2.55112 11.5827 -0.399817 36.7528 -0.0 -0.0 0.0 0.0 0.0 
694.238 714.995 -1313.0 -162.161 -62.4204 -170.416 2.15406 0.401367 2.13731 2.15656 0.264583 2.1585 2.16641 -0.112967 2.17171 2.1599 0.23135 2.16231 -6.32372 2.36117 0.215971 -6.32242 4.21273 0.671142 -0.0 0.0 -0.0 10.3471 1.09919 20.3101 -23.4754 -49.5264 36.0909 1.4434 -35.5633 0.462938 -74.7593 -7.15412 5.31955 -8.36052 26.284 -40.0745 -0.0 0.0 -0.0 2.24924 -20.3902 -5.65626 -5.64705 -4.01938 -70.8072 0.708303 19.3346 -0.120658 77.3996 3.54213 8.45644 -3.93063 -27.4135 10.8573 0.0 0.0 0.0 21.145 -27.5071 23.3481 -14.5234 0.320665 2.19977 2.50755 28.6856 -0.388999 -12.125 0.0 0.0 -0.0 0.0 -0.0 40.8413 8.72404 12.6737 -25.2163 -0.197374 -3.83351 -5.22605 9.86838 -0.815203 37.3882 -0.0 -0.0 0.0 0.0 0.0 
700.386 714.012 -1310.13 -160.985 -61.8496 -169.669 2.27315 0.477835 2.10296 2.27554 0.343081 2.12909 2.28814 -0.0259225 2.15638 2.28178 0.314884 2.13344 -6.85129 2.14544 1.66001 -6.84451 2.77907 2.09067 -0.0 0.0 -0.0 10.3678 1.1751 20.348 -26.0946 -50.2664 33.6839 1.58582 -38.1493 0.548385 -78.516 -7.63328 5.29726 -8.96441 28.6324 -41.7838 -0.0 0.0 -0.0 2.03586 -19.2516 -5.28098 -5.40259 -3.49105 -71.9122 0.736689 20.0487 -0.130223 76.8419 3.47948 8.42182 -4.25586 -28.0984 12.2341 0.0 0.0 0.0 20.5751 -25.5351 22.8199 -14.3907 0.320275 2.17942 4.46151 24.9592 -0.67391 -13.1472 0.0 0.0 -0.0 0.0 -0.0 39.2205 7.4025 13.0909 -19.1921 -0.304377 -2.9157 -7.40728 12.5959 -1.18031 39.7088 -0.0 -0.0 0.0 0.0 0.0 
708.2 712.311 -1303.29 -159.781 -62.368 -168.335 2.20549 0.395202 2.02778 2.20774 0.265396 2.0488 2.21709 -0.091348 2.06389 2.21123 0.235682 2.05243 -7.21913 2.19112 2.73812 -7.19946 2.10454 3.18166 -0.0 0.0 -0.0 10.0888 1.51641 19.7551 -25.5734 -50.5087 34.1999 1.64619 -39.1932 0.586105 -76.2592 -7.34566 5.31445 -9.58357 30.8874 -43.4735 -0.0 0.0 -0.0 1.86217 -19.9366 -5.0632 -6.70095 0.911561 -72.5183 0.771171 20.9076 -0.142287 76.8696 3.48259 8.42355 -3.84528 -27.1844 10.5229 0.0 0.0 0.0 19.5907 -23.7099 22.1331 -14.8912 0.321499 2.25619 6.51789 25.0226 -0.979432 -13.745 0.0 0.0 -0.0 0.0 -0.0 39.6423 7.02656 11.8584 -13.9024 -0.318435 -2.10452 -8.00069 11.5628 -1.26748 37.0397 -0.0 -0.0 0.0 0.0 0.0 
712.497 711.675 -1294.91 -158.506 -62.4836 -167.112 2.2405 0.367881 2.08427 2.24289 0.234538 2.10344 2.25131 -0.129915 2.11248 2.24514 0.205267 2.1065 -4.9423 1.86601 3.40295 -4.91081 0.866907 3.79028 -0.0 0.0 -0.0 9.98343 1.80567 19.523 -24.502 -48.8907 33.408 1.70259 -40.1414 0.622114 -80.4977 -7.88495 5.27276 -9.73239 30.8231 -44.7915 -0.0 0.0 -0.0 1.98687 -19.9385 -5.24712 -6.43016 -1.8827 -73.2433 0.807033 21.7904 -0.155343 77.0202 3.49948 8.43295 -3.85018 -26.7005 10.8523 0.0 0.0 0.0 19.1679 -24.9889 21.522 -13.8156 0.318041 2.09121 5.02206 21.4612 -0.745158 -15.1202 0.0 0.0 -0.0 0.0 -0.0 39.3588 6.90927 11.1009 -10.3563 -0.285933 -1.56147 -9.96414 12.6826 -1.59518 39.1288 -0.0 -0.0 0.0 0.0 0.0 
